# xmcd CD database file
#
# Track frame offsets:
#	150
#	19575
#	42675
#	66525
#	80175
#	103125
#	133500
#	163275
#	187275
#	208500
#	233025
#
# Disc length: 3586 seconds
#
# Revision: 0
# Processed by: cddbd v1.5.2PL0 Copyright (c) Steve Scherf et al.
# Submitted via: CDex 1.51
#
DISCID=a90e000b
DTITLE=Jeff Jerolamon - Jeff Jerolamon's Swing Thing
DYEAR=1993
DGENRE=Jazz
TTITLE0=Midget
TTITLE1=You go to my head
TTITLE2=Idaho
TTITLE3=Avalon
TTITLE4=Seven come-eleven
TTITLE5=Nancy with the laughing face
TTITLE6=Evidence/Just you just me
TTITLE7=Overtime
TTITLE8=My heart tells me
TTITLE9=Dark eyes
TTITLE10=Lover come back to me
EXTD=YEAR: 1993
EXTT0=
EXTT1=
EXTT2=
EXTT3=
EXTT4=
EXTT5=
EXTT6=
EXTT7=
EXTT8=
EXTT9=
EXTT10=
PLAYORDER=
